<?xml version="1.0" encoding="UTF-8" standalone="no"?>
<!DOCTYPE svg PUBLIC "-//W3C//DTD SVG 1.1//EN"
 "http://www.w3.org/Graphics/SVG/1.1/DTD/svg11.dtd">
<!-- Generated by graphviz version 12.0.0 (20240704.0754)
 -->
<!-- Title: data_flow Pages: 1 -->
<svg width="1276pt" height="159pt"
 viewBox="0.00 0.00 1275.95 159.05" xmlns="http://www.w3.org/2000/svg" xmlns:xlink="http://www.w3.org/1999/xlink">
<g id="graph0" class="graph" transform="scale(1 1) rotate(0) translate(28.8 130.25)">
<title>data_flow</title>
<polygon fill="#ffffff" stroke="none" points="-28.8,28.8 -28.8,-130.25 1247.15,-130.25 1247.15,28.8 -28.8,28.8"/>
<text text-anchor="middle" x="609.18" y="-85.1" font-family="Helvetica,sans-Serif" font-size="13.00">Signal Atlas &#45; How Information Becomes The Product</text>
<!-- sources -->
<g id="node1" class="node">
<title>sources</title>
<polygon fill="#fef3c7" stroke="#333333" points="139,-61.6 0,-61.6 0,-17.6 139,-17.6 139,-61.6"/>
<text text-anchor="middle" x="69.5" y="-48.1" font-family="Helvetica,sans-Serif" font-size="10.00">Local source material</text>
<text text-anchor="middle" x="69.5" y="-36.1" font-family="Helvetica,sans-Serif" font-size="10.00">newsletters, reporting,</text>
<text text-anchor="middle" x="69.5" y="-24.1" font-family="Helvetica,sans-Serif" font-size="10.00">live events, cultural coverage</text>
</g>
<!-- pipeline -->
<g id="node2" class="node">
<title>pipeline</title>
<polygon fill="#fef3c7" stroke="#333333" points="329,-61.6 199.75,-61.6 199.75,-17.6 329,-17.6 329,-61.6"/>
<text text-anchor="middle" x="264.37" y="-48.1" font-family="Helvetica,sans-Serif" font-size="10.00">Export + pipeline step</text>
<text text-anchor="middle" x="264.37" y="-36.1" font-family="Helvetica,sans-Serif" font-size="10.00">normalizes raw inputs into</text>
<text text-anchor="middle" x="264.37" y="-24.1" font-family="Helvetica,sans-Serif" font-size="10.00">a static runtime bundle</text>
</g>
<!-- sources&#45;&gt;pipeline -->
<g id="edge1" class="edge">
<title>sources&#45;&gt;pipeline</title>
<path fill="none" stroke="#555555" d="M139.32,-39.6C155.07,-39.6 171.9,-39.6 187.92,-39.6"/>
<polygon fill="#555555" stroke="#555555" points="187.9,-43.1 197.9,-39.6 187.9,-36.1 187.9,-43.1"/>
<text text-anchor="middle" x="169.38" y="-42.3" font-family="Helvetica,sans-Serif" font-size="9.00">export</text>
</g>
<!-- runtime -->
<g id="node3" class="node">
<title>runtime</title>
<path fill="#dbeafe" stroke="#333333" d="M550.5,-64.35C550.5,-67.38 513.47,-69.85 467.87,-69.85 422.28,-69.85 385.25,-67.38 385.25,-64.35 385.25,-64.35 385.25,-14.85 385.25,-14.85 385.25,-11.81 422.28,-9.35 467.87,-9.35 513.47,-9.35 550.5,-11.81 550.5,-14.85 550.5,-14.85 550.5,-64.35 550.5,-64.35"/>
<path fill="none" stroke="#333333" d="M550.5,-64.35C550.5,-61.31 513.47,-58.85 467.87,-58.85 422.28,-58.85 385.25,-61.31 385.25,-64.35"/>
<text text-anchor="middle" x="467.87" y="-48.1" font-family="Helvetica,sans-Serif" font-size="10.00">signal&#45;atlas&#45;data.js</text>
<text text-anchor="middle" x="467.87" y="-36.1" font-family="Helvetica,sans-Serif" font-size="10.00">checked&#45;in runtime truth</text>
<text text-anchor="middle" x="467.87" y="-24.1" font-family="Helvetica,sans-Serif" font-size="10.00">atlasBuild + atlasFeed + atlasMap</text>
</g>
<!-- pipeline&#45;&gt;runtime -->
<g id="edge2" class="edge">
<title>pipeline&#45;&gt;runtime</title>
<path fill="none" stroke="#555555" d="M329.41,-39.6C343.46,-39.6 358.61,-39.6 373.55,-39.6"/>
<polygon fill="#555555" stroke="#555555" points="373.39,-43.1 383.39,-39.6 373.39,-36.1 373.39,-43.1"/>
<text text-anchor="middle" x="357.12" y="-42.3" font-family="Helvetica,sans-Serif" font-size="9.00">build</text>
</g>
<!-- graphq -->
<g id="node4" class="node">
<title>graphq</title>
<polygon fill="#d1fae5" stroke="#333333" points="723.25,-67.6 605.25,-67.6 605.25,-11.6 723.25,-11.6 723.25,-67.6"/>
<text text-anchor="middle" x="664.25" y="-54.1" font-family="Helvetica,sans-Serif" font-size="10.00">Query layer</text>
<text text-anchor="middle" x="664.25" y="-42.1" font-family="Helvetica,sans-Serif" font-size="10.00">src/atlas&#45;graph.js</text>
<text text-anchor="middle" x="664.25" y="-30.1" font-family="Helvetica,sans-Serif" font-size="10.00">projects, filters, groups,</text>
<text text-anchor="middle" x="664.25" y="-18.1" font-family="Helvetica,sans-Serif" font-size="10.00">and resolves Mixtapes</text>
</g>
<!-- runtime&#45;&gt;graphq -->
<g id="edge3" class="edge">
<title>runtime&#45;&gt;graphq</title>
<path fill="none" stroke="#555555" d="M550.74,-39.6C564.93,-39.6 579.56,-39.6 593.39,-39.6"/>
<polygon fill="#555555" stroke="#555555" points="593.27,-43.1 603.27,-39.6 593.27,-36.1 593.27,-43.1"/>
<text text-anchor="middle" x="577.87" y="-42.3" font-family="Helvetica,sans-Serif" font-size="9.00">read</text>
</g>
<!-- renderer -->
<g id="node5" class="node">
<title>renderer</title>
<polygon fill="#ede0f5" stroke="#333333" points="978.5,-61.6 821.5,-61.6 821.5,-17.6 978.5,-17.6 978.5,-61.6"/>
<text text-anchor="middle" x="900" y="-48.1" font-family="Helvetica,sans-Serif" font-size="10.00">Product shell</text>
<text text-anchor="middle" x="900" y="-36.1" font-family="Helvetica,sans-Serif" font-size="10.00">map + focus panel + mixed grid</text>
<text text-anchor="middle" x="900" y="-24.1" font-family="Helvetica,sans-Serif" font-size="10.00">+ classifieds rail + mixtape page</text>
</g>
<!-- graphq&#45;&gt;renderer -->
<g id="edge4" class="edge">
<title>graphq&#45;&gt;renderer</title>
<path fill="none" stroke="#555555" d="M723.63,-39.6C749.66,-39.6 780.89,-39.6 809.75,-39.6"/>
<polygon fill="#555555" stroke="#555555" points="809.58,-43.1 819.58,-39.6 809.58,-36.1 809.58,-43.1"/>
<text text-anchor="middle" x="772.37" y="-42.3" font-family="Helvetica,sans-Serif" font-size="9.00">query payloads</text>
</g>
<!-- user -->
<g id="node6" class="node">
<title>user</title>
<ellipse fill="#f5f5f5" stroke="#333333" cx="1146.05" cy="-39.6" rx="72.3" ry="39.6"/>
<text text-anchor="middle" x="1146.05" y="-54.1" font-family="Helvetica,sans-Serif" font-size="10.00">User experience</text>
<text text-anchor="middle" x="1146.05" y="-42.1" font-family="Helvetica,sans-Serif" font-size="10.00">understand the city,</text>
<text text-anchor="middle" x="1146.05" y="-30.1" font-family="Helvetica,sans-Serif" font-size="10.00">inspect evidence,</text>
<text text-anchor="middle" x="1146.05" y="-18.1" font-family="Helvetica,sans-Serif" font-size="10.00">and act</text>
</g>
<!-- renderer&#45;&gt;user -->
<g id="edge5" class="edge">
<title>renderer&#45;&gt;user</title>
<path fill="none" stroke="#555555" d="M978.89,-39.6C1005.38,-39.6 1035.07,-39.6 1061.95,-39.6"/>
<polygon fill="#555555" stroke="#555555" points="1061.77,-43.1 1071.77,-39.6 1061.77,-36.1 1061.77,-43.1"/>
<text text-anchor="middle" x="1026.12" y="-42.3" font-family="Helvetica,sans-Serif" font-size="9.00">visible product</text>
</g>
</g>
</svg>
