<?xml version="1.0" encoding="UTF-8" standalone="no"?>
<!DOCTYPE svg PUBLIC "-//W3C//DTD SVG 1.1//EN"
 "http://www.w3.org/Graphics/SVG/1.1/DTD/svg11.dtd">
<!-- Generated by graphviz version 12.0.0 (20240704.0754)
 -->
<!-- Title: item_types Pages: 1 -->
<svg width="717pt" height="228pt"
 viewBox="0.00 0.00 717.22 227.85" xmlns="http://www.w3.org/2000/svg" xmlns:xlink="http://www.w3.org/1999/xlink">
<g id="graph0" class="graph" transform="scale(1 1) rotate(0) translate(28.8 199.05)">
<title>item_types</title>
<polygon fill="#ffffff" stroke="none" points="-28.8,28.8 -28.8,-199.05 688.42,-199.05 688.42,28.8 -28.8,28.8"/>
<text text-anchor="middle" x="329.81" y="-153.9" font-family="Helvetica,sans-Serif" font-size="13.00">Signal Atlas &#45; What A Card Can Be</text>
<!-- source -->
<g id="node1" class="node">
<title>source</title>
<polygon fill="#dbeafe" stroke="#333333" points="142,-148 0,-148 0,-92 142,-92 142,-148"/>
<text text-anchor="middle" x="71" y="-134.5" font-family="Helvetica,sans-Serif" font-size="10.00">Source card</text>
<text text-anchor="middle" x="71" y="-122.5" font-family="Helvetica,sans-Serif" font-size="10.00">A piece of writing or reporting</text>
<text text-anchor="middle" x="71" y="-110.5" font-family="Helvetica,sans-Serif" font-size="10.00">with title, summary, source,</text>
<text text-anchor="middle" x="71" y="-98.5" font-family="Helvetica,sans-Serif" font-size="10.00">time, and place</text>
</g>
<!-- shared -->
<g id="node5" class="node">
<title>shared</title>
<polygon fill="#f5f5f5" stroke="#333333" points="392.62,-56 233.38,-56 233.38,0 398.62,0 398.62,-50 392.62,-56"/>
<polyline fill="none" stroke="#333333" points="392.62,-56 392.62,-50"/>
<polyline fill="none" stroke="#333333" points="398.62,-50 392.62,-50"/>
<text text-anchor="middle" x="316" y="-42.5" font-family="Helvetica,sans-Serif" font-size="10.00">Shared product rules</text>
<text text-anchor="middle" x="316" y="-30.5" font-family="Helvetica,sans-Serif" font-size="10.00">placeKey drives geography</text>
<text text-anchor="middle" x="316" y="-18.5" font-family="Helvetica,sans-Serif" font-size="10.00">window drives time filters</text>
<text text-anchor="middle" x="316" y="-6.5" font-family="Helvetica,sans-Serif" font-size="10.00">cards stay previews, not full pages</text>
</g>
<!-- source&#45;&gt;shared -->
<g id="edge1" class="edge">
<title>source&#45;&gt;shared</title>
<path fill="none" stroke="#555555" stroke-dasharray="5,2" d="M142.19,-92.85C169.88,-82.68 201.83,-70.94 230.72,-60.33"/>
<polygon fill="#555555" stroke="#555555" points="231.61,-63.73 239.79,-56.99 229.2,-57.16 231.61,-63.73"/>
</g>
<!-- event -->
<g id="node2" class="node">
<title>event</title>
<polygon fill="#d1fae5" stroke="#333333" points="305.88,-148 160.12,-148 160.12,-92 305.88,-92 305.88,-148"/>
<text text-anchor="middle" x="233" y="-134.5" font-family="Helvetica,sans-Serif" font-size="10.00">Event card</text>
<text text-anchor="middle" x="233" y="-122.5" font-family="Helvetica,sans-Serif" font-size="10.00">A local happening with title,</text>
<text text-anchor="middle" x="233" y="-110.5" font-family="Helvetica,sans-Serif" font-size="10.00">venue/place, time, status,</text>
<text text-anchor="middle" x="233" y="-98.5" font-family="Helvetica,sans-Serif" font-size="10.00">and participants when present</text>
</g>
<!-- event&#45;&gt;shared -->
<g id="edge2" class="edge">
<title>event&#45;&gt;shared</title>
<path fill="none" stroke="#555555" stroke-dasharray="5,2" d="M258.35,-91.51C266.16,-83.05 274.86,-73.61 283.1,-64.68"/>
<polygon fill="#555555" stroke="#555555" points="285.57,-67.16 289.78,-57.44 280.42,-62.41 285.57,-67.16"/>
</g>
<!-- listing -->
<g id="node3" class="node">
<title>listing</title>
<polygon fill="#fef3c7" stroke="#333333" points="476.25,-148 323.75,-148 323.75,-92 476.25,-92 476.25,-148"/>
<text text-anchor="middle" x="400" y="-134.5" font-family="Helvetica,sans-Serif" font-size="10.00">Listing card</text>
<text text-anchor="middle" x="400" y="-122.5" font-family="Helvetica,sans-Serif" font-size="10.00">A practical offer or ask.</text>
<text text-anchor="middle" x="400" y="-110.5" font-family="Helvetica,sans-Serif" font-size="10.00">Supported by taxonomy today,</text>
<text text-anchor="middle" x="400" y="-98.5" font-family="Helvetica,sans-Serif" font-size="10.00">lightly populated in runtime now</text>
</g>
<!-- listing&#45;&gt;shared -->
<g id="edge3" class="edge">
<title>listing&#45;&gt;shared</title>
<path fill="none" stroke="#555555" stroke-dasharray="5,2" d="M374.34,-91.51C366.44,-83.05 357.63,-73.61 349.3,-64.68"/>
<polygon fill="#555555" stroke="#555555" points="351.92,-62.35 342.53,-57.43 346.8,-67.13 351.92,-62.35"/>
</g>
<!-- mixtape -->
<g id="node4" class="node">
<title>mixtape</title>
<polygon fill="#ede0f5" stroke="#333333" points="659.62,-142 494.38,-142 494.38,-98 659.62,-98 659.62,-142"/>
<text text-anchor="middle" x="577" y="-128.5" font-family="Helvetica,sans-Serif" font-size="10.00">Mixtape card</text>
<text text-anchor="middle" x="577" y="-116.5" font-family="Helvetica,sans-Serif" font-size="10.00">A curated set of Sources + Events</text>
<text text-anchor="middle" x="577" y="-104.5" font-family="Helvetica,sans-Serif" font-size="10.00">shown as one square preview card</text>
</g>
<!-- mixtape&#45;&gt;shared -->
<g id="edge4" class="edge">
<title>mixtape&#45;&gt;shared</title>
<path fill="none" stroke="#555555" stroke-dasharray="5,2" d="M514.82,-97.56C482.29,-86.34 441.88,-72.41 406.01,-60.04"/>
<polygon fill="#555555" stroke="#555555" points="407.55,-56.87 396.96,-56.92 405.27,-63.49 407.55,-56.87"/>
</g>
</g>
</svg>
