<?xml version="1.0" encoding="UTF-8" standalone="no"?>
<!DOCTYPE svg PUBLIC "-//W3C//DTD SVG 1.1//EN"
 "http://www.w3.org/Graphics/SVG/1.1/DTD/svg11.dtd">
<!-- Generated by graphviz version 12.0.0 (20240704.0754)
 -->
<!-- Title: lens_specs Pages: 1 -->
<svg width="569pt" height="216pt"
 viewBox="0.00 0.00 569.35 215.85" xmlns="http://www.w3.org/2000/svg" xmlns:xlink="http://www.w3.org/1999/xlink">
<g id="graph0" class="graph" transform="scale(1 1) rotate(0) translate(28.8 187.05)">
<title>lens_specs</title>
<polygon fill="#ffffff" stroke="none" points="-28.8,28.8 -28.8,-187.05 540.55,-187.05 540.55,28.8 -28.8,28.8"/>
<text text-anchor="middle" x="255.88" y="-141.9" font-family="Helvetica,sans-Serif" font-size="13.00">Signal Atlas &#45; Three Reading Modes</text>
<!-- local -->
<g id="node1" class="node">
<title>local</title>
<polygon fill="#d1fae5" stroke="#333333" points="160,-136 0,-136 0,-92 160,-92 160,-136"/>
<text text-anchor="middle" x="80" y="-122.5" font-family="Helvetica,sans-Serif" font-size="10.00">Local</text>
<text text-anchor="middle" x="80" y="-110.5" font-family="Helvetica,sans-Serif" font-size="10.00">Start with neighborhood texture,</text>
<text text-anchor="middle" x="80" y="-98.5" font-family="Helvetica,sans-Serif" font-size="10.00">scene motion, and local reporting</text>
</g>
<!-- rules -->
<g id="node4" class="node">
<title>rules</title>
<polygon fill="#f5f5f5" stroke="#333333" points="341.75,-56 168.25,-56 168.25,0 347.75,0 347.75,-50 341.75,-56"/>
<polyline fill="none" stroke="#333333" points="341.75,-56 341.75,-50"/>
<polyline fill="none" stroke="#333333" points="347.75,-50 341.75,-50"/>
<text text-anchor="middle" x="258" y="-42.5" font-family="Helvetica,sans-Serif" font-size="10.00">All three are driven by</text>
<text text-anchor="middle" x="258" y="-30.5" font-family="Helvetica,sans-Serif" font-size="10.00">lens specs and the same query layer.</text>
<text text-anchor="middle" x="258" y="-18.5" font-family="Helvetica,sans-Serif" font-size="10.00">The lens changes emphasis,</text>
<text text-anchor="middle" x="258" y="-6.5" font-family="Helvetica,sans-Serif" font-size="10.00">not the underlying product.</text>
</g>
<!-- local&#45;&gt;rules -->
<g id="edge1" class="edge">
<title>local&#45;&gt;rules</title>
<path fill="none" stroke="#555555" stroke-dasharray="5,2" d="M125.38,-91.59C144.85,-82.4 168.03,-71.46 189.52,-61.32"/>
<polygon fill="#555555" stroke="#555555" points="190.99,-64.49 198.54,-57.06 188,-58.16 190.99,-64.49"/>
</g>
<!-- world -->
<g id="node2" class="node">
<title>world</title>
<polygon fill="#dbeafe" stroke="#333333" points="338.38,-136 177.62,-136 177.62,-92 338.38,-92 338.38,-136"/>
<text text-anchor="middle" x="258" y="-122.5" font-family="Helvetica,sans-Serif" font-size="10.00">World</text>
<text text-anchor="middle" x="258" y="-110.5" font-family="Helvetica,sans-Serif" font-size="10.00">Read New Orleans from the wider</text>
<text text-anchor="middle" x="258" y="-98.5" font-family="Helvetica,sans-Serif" font-size="10.00">civic and editorial field</text>
</g>
<!-- world&#45;&gt;rules -->
<g id="edge2" class="edge">
<title>world&#45;&gt;rules</title>
<path fill="none" stroke="#555555" stroke-dasharray="5,2" d="M258,-91.8C258,-84.47 258,-76 258,-67.71"/>
<polygon fill="#555555" stroke="#555555" points="261.5,-67.75 258,-57.75 254.5,-67.75 261.5,-67.75"/>
</g>
<!-- classifieds -->
<g id="node3" class="node">
<title>classifieds</title>
<polygon fill="#fef3c7" stroke="#333333" points="511.75,-136 356.25,-136 356.25,-92 511.75,-92 511.75,-136"/>
<text text-anchor="middle" x="434" y="-122.5" font-family="Helvetica,sans-Serif" font-size="10.00">Classifieds</text>
<text text-anchor="middle" x="434" y="-110.5" font-family="Helvetica,sans-Serif" font-size="10.00">Keep practical circulation visible</text>
<text text-anchor="middle" x="434" y="-98.5" font-family="Helvetica,sans-Serif" font-size="10.00">without taking over the main grid</text>
</g>
<!-- classifieds&#45;&gt;rules -->
<g id="edge3" class="edge">
<title>classifieds&#45;&gt;rules</title>
<path fill="none" stroke="#555555" stroke-dasharray="5,2" d="M389.13,-91.59C369.88,-82.4 346.96,-71.46 325.72,-61.32"/>
<polygon fill="#555555" stroke="#555555" points="327.34,-58.22 316.81,-57.07 324.33,-64.53 327.34,-58.22"/>
</g>
</g>
</svg>
