<?xml version="1.0" encoding="UTF-8" standalone="no"?>
<!DOCTYPE svg PUBLIC "-//W3C//DTD SVG 1.1//EN"
 "http://www.w3.org/Graphics/SVG/1.1/DTD/svg11.dtd">
<!-- Generated by graphviz version 12.0.0 (20240704.0754)
 -->
<!-- Title: modules Pages: 1 -->
<svg width="848pt" height="310pt"
 viewBox="0.00 0.00 848.10 309.79" xmlns="http://www.w3.org/2000/svg" xmlns:xlink="http://www.w3.org/1999/xlink">
<g id="graph0" class="graph" transform="scale(1 1) rotate(0) translate(28.8 280.99)">
<title>modules</title>
<polygon fill="#ffffff" stroke="none" points="-28.8,28.8 -28.8,-280.99 819.3,-280.99 819.3,28.8 -28.8,28.8"/>
<text text-anchor="middle" x="395.25" y="-235.84" font-family="Helvetica,sans-Serif" font-size="13.00">Signal Atlas &#45; Main Project Pieces</text>
<!-- runtime -->
<g id="node1" class="node">
<title>runtime</title>
<path fill="#dbeafe" stroke="#333333" d="M122.12,-225.94C122.12,-228.14 98.2,-229.94 68.75,-229.94 39.3,-229.94 15.38,-228.14 15.38,-225.94 15.38,-225.94 15.38,-189.94 15.38,-189.94 15.38,-187.73 39.3,-185.94 68.75,-185.94 98.2,-185.94 122.12,-187.73 122.12,-189.94 122.12,-189.94 122.12,-225.94 122.12,-225.94"/>
<path fill="none" stroke="#333333" d="M122.12,-225.94C122.12,-223.73 98.2,-221.94 68.75,-221.94 39.3,-221.94 15.38,-223.73 15.38,-225.94"/>
<text text-anchor="middle" x="68.75" y="-210.44" font-family="Helvetica,sans-Serif" font-size="10.00">signal&#45;atlas&#45;data.js</text>
<text text-anchor="middle" x="68.75" y="-198.44" font-family="Helvetica,sans-Serif" font-size="10.00">static runtime bundle</text>
</g>
<!-- graphq -->
<g id="node3" class="node">
<title>graphq</title>
<polygon fill="#d1fae5" stroke="#333333" points="307.5,-172.94 189.5,-172.94 189.5,-136.94 307.5,-136.94 307.5,-172.94"/>
<text text-anchor="middle" x="248.5" y="-157.44" font-family="Helvetica,sans-Serif" font-size="10.00">src/atlas&#45;graph.js</text>
<text text-anchor="middle" x="248.5" y="-145.44" font-family="Helvetica,sans-Serif" font-size="10.00">query + projection layer</text>
</g>
<!-- runtime&#45;&gt;graphq -->
<g id="edge1" class="edge">
<title>runtime&#45;&gt;graphq</title>
<path fill="none" stroke="#555555" d="M122.6,-192.18C140.05,-186.97 159.74,-181.1 178.24,-175.59"/>
<polygon fill="#555555" stroke="#555555" points="179.23,-178.95 187.81,-172.73 177.23,-172.24 179.23,-178.95"/>
</g>
<!-- mixtapes -->
<g id="node2" class="node">
<title>mixtapes</title>
<polygon fill="#ede0f5" stroke="#333333" points="129.25,-167.94 8.25,-167.94 8.25,-131.94 129.25,-131.94 129.25,-167.94"/>
<text text-anchor="middle" x="68.75" y="-152.44" font-family="Helvetica,sans-Serif" font-size="10.00">src/atlas&#45;mixtapes.js</text>
<text text-anchor="middle" x="68.75" y="-140.44" font-family="Helvetica,sans-Serif" font-size="10.00">seeded + draft Mixtapes</text>
</g>
<!-- mixtapes&#45;&gt;graphq -->
<g id="edge2" class="edge">
<title>mixtapes&#45;&gt;graphq</title>
<path fill="none" stroke="#555555" d="M129.43,-151.62C144.93,-152.05 161.77,-152.53 177.74,-152.97"/>
<polygon fill="#555555" stroke="#555555" points="177.57,-156.47 187.67,-153.25 177.77,-149.47 177.57,-156.47"/>
</g>
<!-- render -->
<g id="node6" class="node">
<title>render</title>
<polygon fill="#fef3c7" stroke="#333333" points="487.25,-88.94 359.5,-88.94 359.5,-44.94 487.25,-44.94 487.25,-88.94"/>
<text text-anchor="middle" x="423.38" y="-75.44" font-family="Helvetica,sans-Serif" font-size="10.00">src/ui/render.js</text>
<text text-anchor="middle" x="423.38" y="-63.44" font-family="Helvetica,sans-Serif" font-size="10.00">home stage, focus panel,</text>
<text text-anchor="middle" x="423.38" y="-51.44" font-family="Helvetica,sans-Serif" font-size="10.00">main grid, rail, detail page</text>
</g>
<!-- graphq&#45;&gt;render -->
<g id="edge3" class="edge">
<title>graphq&#45;&gt;render</title>
<path fill="none" stroke="#555555" d="M303.03,-136.51C309.67,-133.82 316.3,-130.94 322.5,-127.94 342.09,-118.44 362.78,-106.21 380.22,-95.19"/>
<polygon fill="#555555" stroke="#555555" points="381.73,-98.38 388.27,-90.04 377.96,-92.48 381.73,-98.38"/>
</g>
<!-- state -->
<g id="node4" class="node">
<title>state</title>
<polygon fill="#fef3c7" stroke="#333333" points="300.75,-118.94 196.25,-118.94 196.25,-74.94 300.75,-74.94 300.75,-118.94"/>
<text text-anchor="middle" x="248.5" y="-105.44" font-family="Helvetica,sans-Serif" font-size="10.00">src/ui/state.js</text>
<text text-anchor="middle" x="248.5" y="-93.44" font-family="Helvetica,sans-Serif" font-size="10.00">URL, draft Mixtape,</text>
<text text-anchor="middle" x="248.5" y="-81.44" font-family="Helvetica,sans-Serif" font-size="10.00">selection, map state</text>
</g>
<!-- state&#45;&gt;render -->
<g id="edge4" class="edge">
<title>state&#45;&gt;render</title>
<path fill="none" stroke="#555555" d="M300.9,-88.02C315.78,-85.44 332.33,-82.56 348.3,-79.79"/>
<polygon fill="#555555" stroke="#555555" points="348.49,-83.31 357.75,-78.15 347.29,-76.41 348.49,-83.31"/>
</g>
<!-- map -->
<g id="node5" class="node">
<title>map</title>
<polygon fill="#fef3c7" stroke="#333333" points="322.5,-56.94 174.5,-56.94 174.5,-20.94 322.5,-20.94 322.5,-56.94"/>
<text text-anchor="middle" x="248.5" y="-41.44" font-family="Helvetica,sans-Serif" font-size="10.00">src/ui/map.js</text>
<text text-anchor="middle" x="248.5" y="-29.44" font-family="Helvetica,sans-Serif" font-size="10.00">map controls + SVG rendering</text>
</g>
<!-- map&#45;&gt;render -->
<g id="edge5" class="edge">
<title>map&#45;&gt;render</title>
<path fill="none" stroke="#555555" d="M322.81,-50.81C331.1,-52.15 339.56,-53.52 347.86,-54.87"/>
<polygon fill="#555555" stroke="#555555" points="347.13,-58.3 357.56,-56.44 348.25,-51.39 347.13,-58.3"/>
</g>
<!-- docs -->
<g id="node8" class="node">
<title>docs</title>
<polygon fill="#f5f5f5" stroke="#333333" points="790.5,-84.94 615.5,-84.94 615.5,-48.94 790.5,-48.94 790.5,-84.94"/>
<text text-anchor="middle" x="703" y="-69.44" font-family="Helvetica,sans-Serif" font-size="10.00">README + screenshots + diagrams</text>
<text text-anchor="middle" x="703" y="-57.44" font-family="Helvetica,sans-Serif" font-size="10.00">product demo layer</text>
</g>
<!-- render&#45;&gt;docs -->
<g id="edge10" class="edge">
<title>render&#45;&gt;docs</title>
<path fill="none" stroke="#555555" stroke-dasharray="5,2" d="M487.72,-66.94C522.09,-66.94 565.34,-66.94 603.97,-66.94"/>
<polygon fill="#555555" stroke="#555555" points="603.74,-70.44 613.74,-66.94 603.74,-63.44 603.74,-70.44"/>
<text text-anchor="middle" x="551.38" y="-69.64" font-family="Helvetica,sans-Serif" font-size="9.00">document the real app</text>
</g>
<!-- app -->
<g id="node7" class="node">
<title>app</title>
<polygon fill="#d1fae5" stroke="#333333" points="137.5,-82.94 0,-82.94 0,-46.94 137.5,-46.94 137.5,-82.94"/>
<text text-anchor="middle" x="68.75" y="-67.44" font-family="Helvetica,sans-Serif" font-size="10.00">app.js</text>
<text text-anchor="middle" x="68.75" y="-55.44" font-family="Helvetica,sans-Serif" font-size="10.00">thin bootstrap + event wiring</text>
</g>
<!-- app&#45;&gt;graphq -->
<g id="edge6" class="edge">
<title>app&#45;&gt;graphq</title>
<path fill="none" stroke="#555555" d="M96.97,-83.24C117.67,-96.68 147.15,-114.8 174.5,-127.94 177.41,-129.34 180.42,-130.71 183.47,-132.05"/>
<polygon fill="#555555" stroke="#555555" points="182.02,-135.23 192.59,-135.88 184.73,-128.78 182.02,-135.23"/>
</g>
<!-- app&#45;&gt;state -->
<g id="edge7" class="edge">
<title>app&#45;&gt;state</title>
<path fill="none" stroke="#555555" d="M137.96,-77.22C153.26,-79.97 169.41,-82.88 184.48,-85.59"/>
<polygon fill="#555555" stroke="#555555" points="183.81,-89.03 194.27,-87.35 185.05,-82.14 183.81,-89.03"/>
</g>
<!-- app&#45;&gt;map -->
<g id="edge8" class="edge">
<title>app&#45;&gt;map</title>
<path fill="none" stroke="#555555" d="M137.96,-54.96C146.11,-53.77 154.5,-52.54 162.84,-51.32"/>
<polygon fill="#555555" stroke="#555555" points="163.27,-54.8 172.65,-49.88 162.25,-47.87 163.27,-54.8"/>
</g>
<!-- app&#45;&gt;render -->
<g id="edge9" class="edge">
<title>app&#45;&gt;render</title>
<path fill="none" stroke="#555555" d="M97.25,-46.5C117.61,-34.01 146.55,-18.61 174.5,-11.94 238.48,3.33 258.79,4.44 322.5,-11.94 343.37,-17.3 364.54,-28.05 382,-38.63"/>
<polygon fill="#555555" stroke="#555555" points="379.67,-41.3 390,-43.65 383.39,-35.37 379.67,-41.3"/>
</g>
</g>
</svg>
