<?xml version="1.0" encoding="UTF-8" standalone="no"?>
<!DOCTYPE svg PUBLIC "-//W3C//DTD SVG 1.1//EN"
 "http://www.w3.org/Graphics/SVG/1.1/DTD/svg11.dtd">
<!-- Generated by graphviz version 12.0.0 (20240704.0754)
 -->
<!-- Title: graph_bridge Pages: 1 -->
<svg width="657pt" height="136pt"
 viewBox="0.00 0.00 657.16 135.85" xmlns="http://www.w3.org/2000/svg" xmlns:xlink="http://www.w3.org/1999/xlink">
<g id="graph0" class="graph" transform="scale(1 1) rotate(0) translate(28.8 107.05)">
<title>graph_bridge</title>
<polygon fill="#ffffff" stroke="none" points="-28.8,28.8 -28.8,-107.05 628.36,-107.05 628.36,28.8 -28.8,28.8"/>
<text text-anchor="middle" x="299.78" y="-61.9" font-family="Helvetica,sans-Serif" font-size="13.00">Signal Atlas &#45; Bridge Between Runtime Data And The UI</text>
<!-- raw -->
<g id="node1" class="node">
<title>raw</title>
<polygon fill="#dbeafe" stroke="#333333" points="118.75,-50 0,-50 0,-6 118.75,-6 118.75,-50"/>
<text text-anchor="middle" x="59.38" y="-36.5" font-family="Helvetica,sans-Serif" font-size="10.00">Raw runtime items</text>
<text text-anchor="middle" x="59.38" y="-24.5" font-family="Helvetica,sans-Serif" font-size="10.00">flat Sources and Events</text>
<text text-anchor="middle" x="59.38" y="-12.5" font-family="Helvetica,sans-Serif" font-size="10.00">plus map geometry</text>
</g>
<!-- project -->
<g id="node2" class="node">
<title>project</title>
<polygon fill="#d1fae5" stroke="#333333" points="282.5,-56 154.75,-56 154.75,0 282.5,0 282.5,-56"/>
<text text-anchor="middle" x="218.62" y="-42.5" font-family="Helvetica,sans-Serif" font-size="10.00">Projection logic</text>
<text text-anchor="middle" x="218.62" y="-30.5" font-family="Helvetica,sans-Serif" font-size="10.00">normalize item shape,</text>
<text text-anchor="middle" x="218.62" y="-18.5" font-family="Helvetica,sans-Serif" font-size="10.00">compute scores, attach</text>
<text text-anchor="middle" x="218.62" y="-6.5" font-family="Helvetica,sans-Serif" font-size="10.00">place and time semantics</text>
</g>
<!-- raw&#45;&gt;project -->
<g id="edge1" class="edge">
<title>raw&#45;&gt;project</title>
<path fill="none" stroke="#555555" d="M118.93,-28C126.76,-28 134.88,-28 142.95,-28"/>
<polygon fill="#555555" stroke="#555555" points="142.76,-31.5 152.76,-28 142.76,-24.5 142.76,-31.5"/>
</g>
<!-- resolve -->
<g id="node3" class="node">
<title>resolve</title>
<polygon fill="#ede0f5" stroke="#333333" points="425.25,-56 318.5,-56 318.5,0 425.25,0 425.25,-56"/>
<text text-anchor="middle" x="371.88" y="-42.5" font-family="Helvetica,sans-Serif" font-size="10.00">Resolve UI bundles</text>
<text text-anchor="middle" x="371.88" y="-30.5" font-family="Helvetica,sans-Serif" font-size="10.00">main grid cards,</text>
<text text-anchor="middle" x="371.88" y="-18.5" font-family="Helvetica,sans-Serif" font-size="10.00">classifieds rail,</text>
<text text-anchor="middle" x="371.88" y="-6.5" font-family="Helvetica,sans-Serif" font-size="10.00">focus item, Mixtapes</text>
</g>
<!-- project&#45;&gt;resolve -->
<g id="edge2" class="edge">
<title>project&#45;&gt;resolve</title>
<path fill="none" stroke="#555555" d="M282.89,-28C290.83,-28 298.96,-28 306.91,-28"/>
<polygon fill="#555555" stroke="#555555" points="306.88,-31.5 316.88,-28 306.88,-24.5 306.88,-31.5"/>
</g>
<!-- ui -->
<g id="node4" class="node">
<title>ui</title>
<ellipse fill="#f5f5f5" stroke="#333333" cx="530.4" cy="-28" rx="69.15" ry="18"/>
<text text-anchor="middle" x="530.4" y="-24.5" font-family="Helvetica,sans-Serif" font-size="10.00">Visible product surface</text>
</g>
<!-- resolve&#45;&gt;ui -->
<g id="edge3" class="edge">
<title>resolve&#45;&gt;ui</title>
<path fill="none" stroke="#555555" d="M425.43,-28C433.16,-28 441.26,-28 449.39,-28"/>
<polygon fill="#555555" stroke="#555555" points="449.35,-31.5 459.35,-28 449.35,-24.5 449.35,-31.5"/>
</g>
</g>
</svg>
