<?xml version="1.0" encoding="UTF-8" standalone="no"?>
<!DOCTYPE svg PUBLIC "-//W3C//DTD SVG 1.1//EN"
 "http://www.w3.org/Graphics/SVG/1.1/DTD/svg11.dtd">
<!-- Generated by graphviz version 12.0.0 (20240704.0754)
 -->
<!-- Title: place_system Pages: 1 -->
<svg width="591pt" height="248pt"
 viewBox="0.00 0.00 591.04 247.85" xmlns="http://www.w3.org/2000/svg" xmlns:xlink="http://www.w3.org/1999/xlink">
<g id="graph0" class="graph" transform="scale(1 1) rotate(0) translate(28.8 219.05)">
<title>place_system</title>
<polygon fill="#ffffff" stroke="none" points="-28.8,28.8 -28.8,-219.05 562.24,-219.05 562.24,28.8 -28.8,28.8"/>
<text text-anchor="middle" x="266.72" y="-173.9" font-family="Helvetica,sans-Serif" font-size="13.00">Signal Atlas &#45; Place Is The Shared Coordinate System</text>
<!-- placekey -->
<g id="node1" class="node">
<title>placekey</title>
<polygon fill="#f5f5f5" stroke="#333333" points="122.5,-106 0,-106 0,-62 122.5,-62 122.5,-106"/>
<text text-anchor="middle" x="61.25" y="-92.5" font-family="Helvetica,sans-Serif" font-size="10.00">placeKey</text>
<text text-anchor="middle" x="61.25" y="-80.5" font-family="Helvetica,sans-Serif" font-size="10.00">canonical slug such as</text>
<text text-anchor="middle" x="61.25" y="-68.5" font-family="Helvetica,sans-Serif" font-size="10.00">bywater, frenchman, cbd</text>
</g>
<!-- map -->
<g id="node2" class="node">
<title>map</title>
<polygon fill="#d1fae5" stroke="#333333" points="293.38,-168 159.62,-168 159.62,-124 293.38,-124 293.38,-168"/>
<text text-anchor="middle" x="226.5" y="-154.5" font-family="Helvetica,sans-Serif" font-size="10.00">Map</text>
<text text-anchor="middle" x="226.5" y="-142.5" font-family="Helvetica,sans-Serif" font-size="10.00">markers, polygons,</text>
<text text-anchor="middle" x="226.5" y="-130.5" font-family="Helvetica,sans-Serif" font-size="10.00">focus state, place pressure</text>
</g>
<!-- placekey&#45;&gt;map -->
<g id="edge1" class="edge">
<title>placekey&#45;&gt;map</title>
<path fill="none" stroke="#555555" d="M121.19,-106.38C132.44,-110.66 144.33,-115.17 155.88,-119.56"/>
<polygon fill="#555555" stroke="#555555" points="154.37,-122.73 164.96,-123.01 156.85,-116.19 154.37,-122.73"/>
</g>
<!-- cards -->
<g id="node3" class="node">
<title>cards</title>
<polygon fill="#dbeafe" stroke="#333333" points="294.5,-106 158.5,-106 158.5,-62 294.5,-62 294.5,-106"/>
<text text-anchor="middle" x="226.5" y="-92.5" font-family="Helvetica,sans-Serif" font-size="10.00">Cards</text>
<text text-anchor="middle" x="226.5" y="-80.5" font-family="Helvetica,sans-Serif" font-size="10.00">badges, venue/place labels,</text>
<text text-anchor="middle" x="226.5" y="-68.5" font-family="Helvetica,sans-Serif" font-size="10.00">linked context</text>
</g>
<!-- placekey&#45;&gt;cards -->
<g id="edge2" class="edge">
<title>placekey&#45;&gt;cards</title>
<path fill="none" stroke="#555555" d="M122.57,-84C130.48,-84 138.66,-84 146.81,-84"/>
<polygon fill="#555555" stroke="#555555" points="146.76,-87.5 156.76,-84 146.76,-80.5 146.76,-87.5"/>
</g>
<!-- rail -->
<g id="node4" class="node">
<title>rail</title>
<polygon fill="#fef3c7" stroke="#333333" points="291.5,-44 161.5,-44 161.5,0 291.5,0 291.5,-44"/>
<text text-anchor="middle" x="226.5" y="-30.5" font-family="Helvetica,sans-Serif" font-size="10.00">Classifieds + Mixtapes</text>
<text text-anchor="middle" x="226.5" y="-18.5" font-family="Helvetica,sans-Serif" font-size="10.00">can still be organized</text>
<text text-anchor="middle" x="226.5" y="-6.5" font-family="Helvetica,sans-Serif" font-size="10.00">by the same locality spine</text>
</g>
<!-- placekey&#45;&gt;rail -->
<g id="edge3" class="edge">
<title>placekey&#45;&gt;rail</title>
<path fill="none" stroke="#555555" d="M121.19,-61.62C132.44,-57.34 144.33,-52.83 155.88,-48.44"/>
<polygon fill="#555555" stroke="#555555" points="156.85,-51.81 164.96,-44.99 154.37,-45.27 156.85,-51.81"/>
</g>
<!-- user -->
<g id="node5" class="node">
<title>user</title>
<ellipse fill="#ede0f5" stroke="#333333" cx="431.97" cy="-84" rx="101.47" ry="31.11"/>
<text text-anchor="middle" x="431.97" y="-92.5" font-family="Helvetica,sans-Serif" font-size="10.00">User understanding</text>
<text text-anchor="middle" x="431.97" y="-80.5" font-family="Helvetica,sans-Serif" font-size="10.00">where things are happening</text>
<text text-anchor="middle" x="431.97" y="-68.5" font-family="Helvetica,sans-Serif" font-size="10.00">and why they belong together</text>
</g>
<!-- map&#45;&gt;user -->
<g id="edge4" class="edge">
<title>map&#45;&gt;user</title>
<path fill="none" stroke="#555555" d="M293.84,-125.78C311.21,-120.49 330.15,-114.72 348.26,-109.2"/>
<polygon fill="#555555" stroke="#555555" points="349.11,-112.6 357.65,-106.34 347.07,-105.91 349.11,-112.6"/>
</g>
<!-- cards&#45;&gt;user -->
<g id="edge5" class="edge">
<title>cards&#45;&gt;user</title>
<path fill="none" stroke="#555555" d="M294.97,-84C302.68,-84 310.68,-84 318.77,-84"/>
<polygon fill="#555555" stroke="#555555" points="318.73,-87.5 328.73,-84 318.73,-80.5 318.73,-87.5"/>
</g>
<!-- rail&#45;&gt;user -->
<g id="edge6" class="edge">
<title>rail&#45;&gt;user</title>
<path fill="none" stroke="#555555" d="M291.88,-41.62C309.69,-47.04 329.27,-53.01 347.98,-58.71"/>
<polygon fill="#555555" stroke="#555555" points="346.84,-62.02 357.43,-61.59 348.88,-55.33 346.84,-62.02"/>
</g>
</g>
</svg>
