<?xml version="1.0" encoding="UTF-8" standalone="no"?>
<!DOCTYPE svg PUBLIC "-//W3C//DTD SVG 1.1//EN"
 "http://www.w3.org/Graphics/SVG/1.1/DTD/svg11.dtd">
<!-- Generated by graphviz version 12.0.0 (20240704.0754)
 -->
<!-- Title: ui_layout Pages: 1 -->
<svg width="442pt" height="416pt"
 viewBox="0.00 0.00 441.60 416.35" xmlns="http://www.w3.org/2000/svg" xmlns:xlink="http://www.w3.org/1999/xlink">
<g id="graph0" class="graph" transform="scale(1 1) rotate(0) translate(28.8 387.55)">
<title>ui_layout</title>
<polygon fill="#ffffff" stroke="none" points="-28.8,28.8 -28.8,-387.55 412.8,-387.55 412.8,28.8 -28.8,28.8"/>
<text text-anchor="middle" x="192" y="-342.4" font-family="Helvetica,sans-Serif" font-size="13.00">Signal Atlas &#45; Current Product Demo Layout</text>
<g id="clust1" class="cluster">
<title>cluster_left</title>
<polygon fill="#f8fffe" stroke="#aaaaaa" points="8,-72 8,-292.5 190,-292.5 190,-72 8,-72"/>
<text text-anchor="middle" x="99" y="-276.15" font-family="Helvetica,sans-Serif" font-size="13.00">Left column</text>
</g>
<g id="clust2" class="cluster">
<title>cluster_right</title>
<polygon fill="#fffdf7" stroke="#aaaaaa" points="198,-72 198,-218.25 376,-218.25 376,-72 198,-72"/>
<text text-anchor="middle" x="287" y="-201.9" font-family="Helvetica,sans-Serif" font-size="13.00">Right column</text>
</g>
<!-- stage -->
<g id="node1" class="node">
<title>stage</title>
<polygon fill="#f5f5f5" stroke="#333333" points="128.38,-336.5 69.62,-336.5 69.62,-300.5 128.38,-300.5 128.38,-336.5"/>
<text text-anchor="middle" x="99" y="-315" font-family="Helvetica,sans-Serif" font-size="10.00">Top stage</text>
</g>
<!-- header -->
<g id="node2" class="node">
<title>header</title>
<polygon fill="#dbeafe" stroke="#333333" points="181.62,-262.25 16.38,-262.25 16.38,-226.25 181.62,-226.25 181.62,-262.25"/>
<text text-anchor="middle" x="99" y="-246.75" font-family="Helvetica,sans-Serif" font-size="10.00">Headline + metrics</text>
<text text-anchor="middle" x="99" y="-234.75" font-family="Helvetica,sans-Serif" font-size="10.00">what the city is paying attention to</text>
</g>
<!-- stage&#45;&gt;header -->
<!-- focus -->
<g id="node3" class="node">
<title>focus</title>
<polygon fill="#fef3c7" stroke="#333333" points="163.38,-188 38.63,-188 38.63,-152 163.38,-152 163.38,-188"/>
<text text-anchor="middle" x="101" y="-172.5" font-family="Helvetica,sans-Serif" font-size="10.00">Item in focus</text>
<text text-anchor="middle" x="101" y="-160.5" font-family="Helvetica,sans-Serif" font-size="10.00">selected Source or Event</text>
</g>
<!-- header&#45;&gt;focus -->
<!-- grid -->
<g id="node4" class="node">
<title>grid</title>
<polygon fill="#d1fae5" stroke="#333333" points="178.5,-116 33.5,-116 33.5,-80 178.5,-80 178.5,-116"/>
<text text-anchor="middle" x="106" y="-100.5" font-family="Helvetica,sans-Serif" font-size="10.00">Main grid</text>
<text text-anchor="middle" x="106" y="-88.5" font-family="Helvetica,sans-Serif" font-size="10.00">Sources + Events + Mixtapes</text>
</g>
<!-- focus&#45;&gt;grid -->
<!-- bottom -->
<g id="node7" class="node">
<title>bottom</title>
<polygon fill="#ede0f5" stroke="#333333" points="271.75,-44 122.25,-44 122.25,0 271.75,0 271.75,-44"/>
<text text-anchor="middle" x="197" y="-30.5" font-family="Helvetica,sans-Serif" font-size="10.00">Lower page</text>
<text text-anchor="middle" x="197" y="-18.5" font-family="Helvetica,sans-Serif" font-size="10.00">place summaries, source mix,</text>
<text text-anchor="middle" x="197" y="-6.5" font-family="Helvetica,sans-Serif" font-size="10.00">and bottom&#45;positioned controls</text>
</g>
<!-- grid&#45;&gt;bottom -->
<!-- map -->
<g id="node5" class="node">
<title>map</title>
<polygon fill="#d1fae5" stroke="#333333" points="346.75,-188 227.25,-188 227.25,-152 346.75,-152 346.75,-188"/>
<text text-anchor="middle" x="287" y="-172.5" font-family="Helvetica,sans-Serif" font-size="10.00">Map</text>
<text text-anchor="middle" x="287" y="-160.5" font-family="Helvetica,sans-Serif" font-size="10.00">where attention clusters</text>
</g>
<!-- rail -->
<g id="node6" class="node">
<title>rail</title>
<polygon fill="#fef3c7" stroke="#333333" points="368.12,-116 205.88,-116 205.88,-80 368.12,-80 368.12,-116"/>
<text text-anchor="middle" x="287" y="-100.5" font-family="Helvetica,sans-Serif" font-size="10.00">Dedicated Classifieds rail</text>
<text text-anchor="middle" x="287" y="-88.5" font-family="Helvetica,sans-Serif" font-size="10.00">practical circulation kept separate</text>
</g>
<!-- map&#45;&gt;rail -->
<!-- rail&#45;&gt;bottom -->
</g>
</svg>
