<?xml version="1.0" encoding="UTF-8" standalone="no"?>
<!DOCTYPE svg PUBLIC "-//W3C//DTD SVG 1.1//EN"
 "http://www.w3.org/Graphics/SVG/1.1/DTD/svg11.dtd">
<!-- Generated by graphviz version 12.0.0 (20240704.0754)
 -->
<!-- Title: state_flow Pages: 1 -->
<svg width="928pt" height="222pt"
 viewBox="0.00 0.00 928.38 222.08" xmlns="http://www.w3.org/2000/svg" xmlns:xlink="http://www.w3.org/1999/xlink">
<g id="graph0" class="graph" transform="scale(1 1) rotate(0) translate(28.8 193.28)">
<title>state_flow</title>
<polygon fill="#ffffff" stroke="none" points="-28.8,28.8 -28.8,-193.28 899.58,-193.28 899.58,28.8 -28.8,28.8"/>
<text text-anchor="middle" x="435.39" y="-148.13" font-family="Helvetica,sans-Serif" font-size="13.00">Signal Atlas &#45; What Changes When A User Interacts</text>
<!-- actions -->
<g id="node1" class="node">
<title>actions</title>
<ellipse fill="#f5f5f5" stroke="#333333" cx="74.95" cy="-71.11" rx="74.95" ry="65.05"/>
<text text-anchor="middle" x="74.95" y="-103.61" font-family="Helvetica,sans-Serif" font-size="10.00">User actions</text>
<text text-anchor="middle" x="74.95" y="-91.61" font-family="Helvetica,sans-Serif" font-size="10.00">change lens</text>
<text text-anchor="middle" x="74.95" y="-79.61" font-family="Helvetica,sans-Serif" font-size="10.00">pick a filter</text>
<text text-anchor="middle" x="74.95" y="-67.61" font-family="Helvetica,sans-Serif" font-size="10.00">select a card</text>
<text text-anchor="middle" x="74.95" y="-55.61" font-family="Helvetica,sans-Serif" font-size="10.00">focus a place</text>
<text text-anchor="middle" x="74.95" y="-43.61" font-family="Helvetica,sans-Serif" font-size="10.00">open a Mixtape</text>
<text text-anchor="middle" x="74.95" y="-31.61" font-family="Helvetica,sans-Serif" font-size="10.00">save to draft Mixtape</text>
</g>
<!-- state -->
<g id="node2" class="node">
<title>state</title>
<ellipse fill="#d1fae5" stroke="#333333" cx="285.19" cy="-71.11" rx="98.29" ry="48.08"/>
<text text-anchor="middle" x="285.19" y="-91.61" font-family="Helvetica,sans-Serif" font-size="10.00">App state</text>
<text text-anchor="middle" x="285.19" y="-79.61" font-family="Helvetica,sans-Serif" font-size="10.00">lens, filters, selection,</text>
<text text-anchor="middle" x="285.19" y="-67.61" font-family="Helvetica,sans-Serif" font-size="10.00">focusPlace, view, mixtapeId,</text>
<text text-anchor="middle" x="285.19" y="-55.61" font-family="Helvetica,sans-Serif" font-size="10.00">draftMixtapeItemIds,</text>
<text text-anchor="middle" x="285.19" y="-43.61" font-family="Helvetica,sans-Serif" font-size="10.00">map position</text>
</g>
<!-- actions&#45;&gt;state -->
<g id="edge1" class="edge">
<title>actions&#45;&gt;state</title>
<path fill="none" stroke="#555555" d="M150.25,-71.11C158.36,-71.11 166.74,-71.11 175.15,-71.11"/>
<polygon fill="#555555" stroke="#555555" points="175.12,-74.61 185.12,-71.11 175.12,-67.61 175.12,-74.61"/>
</g>
<!-- url -->
<g id="node3" class="node">
<title>url</title>
<ellipse fill="#dbeafe" stroke="#333333" cx="578.69" cy="-111.11" rx="83.97" ry="31.11"/>
<text text-anchor="middle" x="578.69" y="-119.61" font-family="Helvetica,sans-Serif" font-size="10.00">URL state</text>
<text text-anchor="middle" x="578.69" y="-107.61" font-family="Helvetica,sans-Serif" font-size="10.00">shareable read mode</text>
<text text-anchor="middle" x="578.69" y="-95.61" font-family="Helvetica,sans-Serif" font-size="10.00">and Mixtape detail links</text>
</g>
<!-- state&#45;&gt;url -->
<g id="edge2" class="edge">
<title>state&#45;&gt;url</title>
<path fill="none" stroke="#555555" d="M380.03,-83.99C414.87,-88.77 454.26,-94.18 488.66,-98.9"/>
<polygon fill="#555555" stroke="#555555" points="487.76,-102.31 498.14,-100.2 488.71,-95.37 487.76,-102.31"/>
<text text-anchor="middle" x="434.86" y="-97.81" font-family="Helvetica,sans-Serif" font-size="9.00">when shareable</text>
</g>
<!-- render -->
<g id="node4" class="node">
<title>render</title>
<ellipse fill="#ede0f5" stroke="#333333" cx="578.69" cy="-31.11" rx="92.45" ry="31.11"/>
<text text-anchor="middle" x="578.69" y="-39.61" font-family="Helvetica,sans-Serif" font-size="10.00">Renderer</text>
<text text-anchor="middle" x="578.69" y="-27.61" font-family="Helvetica,sans-Serif" font-size="10.00">rebuilds the visible product</text>
<text text-anchor="middle" x="578.69" y="-15.61" font-family="Helvetica,sans-Serif" font-size="10.00">from the current state</text>
</g>
<!-- state&#45;&gt;render -->
<g id="edge3" class="edge">
<title>state&#45;&gt;render</title>
<path fill="none" stroke="#555555" d="M380.03,-58.24C412.34,-53.8 448.56,-48.83 481.08,-44.37"/>
<polygon fill="#555555" stroke="#555555" points="481.49,-47.85 490.92,-43.02 480.53,-40.91 481.49,-47.85"/>
</g>
<!-- ui -->
<g id="node5" class="node">
<title>ui</title>
<ellipse fill="#fef3c7" stroke="#333333" cx="789.46" cy="-31.11" rx="81.32" ry="31.11"/>
<text text-anchor="middle" x="789.46" y="-39.61" font-family="Helvetica,sans-Serif" font-size="10.00">Updated screen</text>
<text text-anchor="middle" x="789.46" y="-27.61" font-family="Helvetica,sans-Serif" font-size="10.00">map, focus panel, grid,</text>
<text text-anchor="middle" x="789.46" y="-15.61" font-family="Helvetica,sans-Serif" font-size="10.00">rail, bottom controls</text>
</g>
<!-- render&#45;&gt;ui -->
<g id="edge4" class="edge">
<title>render&#45;&gt;ui</title>
<path fill="none" stroke="#555555" d="M671.56,-31.11C679.74,-31.11 688.02,-31.11 696.2,-31.11"/>
<polygon fill="#555555" stroke="#555555" points="696.17,-34.61 706.17,-31.11 696.17,-27.61 696.17,-34.61"/>
</g>
</g>
</svg>
